<svg width="62" height="32" viewBox="0 0 62 32" fill="none" xmlns="http://www.w3.org/2000/svg">
<g clip-path="url(#clip0_2_91)">
<path d="M0.000200577 21.9277C0.130977 19.543 0.210806 17.1543 0.404964 14.7749C0.664911 11.5901 2.51323 9.33286 5.34497 8.56906C6.44814 8.2714 7.54349 8.38413 8.6264 8.62923C9.61304 8.85267 10.3253 8.54459 10.8897 7.72222C11.8737 6.2885 12.8814 4.87063 13.8953 3.45777C15.2053 1.63212 17.0135 0.6872 19.2251 0.391149C22.4142 -0.0356782 25.6084 -0.125537 28.8066 0.18275C30.7811 0.372896 32.7339 0.118365 34.6959 0.0453548C37.6936 -0.0661658 40.6763 0.0361283 43.6214 0.662128C45.017 0.958781 46.2343 1.61968 47.1275 2.72987C48.1853 4.04505 49.1547 5.43144 50.1546 6.79295C50.4238 7.15961 50.656 7.55294 50.9192 7.92421C51.3699 8.56003 51.9846 8.79591 52.7502 8.64769C53.9874 8.408 55.2254 8.25676 56.4653 8.63184C59.2485 9.47366 60.7611 11.4056 61.1227 14.2297C61.3329 15.8709 61.4569 17.5302 61.4952 19.1842C61.5598 21.978 61.5519 24.7744 61.5229 27.5693C61.5062 29.1653 61.2874 29.4834 59.7171 29.7993C57.4108 30.2632 55.085 30.6467 52.7539 30.9644C51.0989 31.1899 49.4235 31.3026 47.7535 31.3624C46.9217 31.3921 46.0548 31.2884 45.2513 31.0701C43.8924 30.7011 42.5427 30.8732 41.1814 30.9029C36.7613 30.9991 32.341 31.0986 27.9201 31.1355C25.7268 31.1538 23.532 31.0413 21.3381 30.9807C20.8999 30.9687 20.4608 30.9404 20.0254 30.8906C18.5541 30.7223 17.1272 30.9654 15.6735 31.1839C14.3089 31.3889 12.8794 31.3871 11.5031 31.242C8.67835 30.9444 5.86867 30.5009 3.05659 30.0911C2.48153 30.0073 1.92393 29.8049 1.3569 29.6625C0.580068 29.4673 0.234073 28.9362 0.20178 28.1716C0.151636 26.9864 0.100288 25.8012 0.0730099 24.6154C0.0525511 23.7216 0.0689984 22.8268 0.0689984 21.9325C0.045932 21.9309 0.0230663 21.9295 0 21.9279L0.000200577 21.9277ZM60.9153 26.5002C60.9671 26.4922 61.0186 26.4842 61.0704 26.4761C61.0704 25.8018 61.1245 25.1222 61.0611 24.4539C60.7595 21.267 60.4486 18.0802 60.0893 14.8995C59.9864 13.9876 59.7401 13.0874 59.5013 12.1975C59.3966 11.8078 59.0552 11.6098 58.6201 11.663C58.2049 11.7137 57.9793 11.9718 57.9139 12.3602C57.8036 13.0166 57.6983 13.6749 57.6261 14.3364C57.3256 17.0906 56.0937 18.581 53.437 19.1435C51.1972 19.6174 48.9383 20.0292 46.6696 20.3309C44.2069 20.6584 41.7272 20.9011 39.247 21.0459C36.0348 21.2335 32.8111 21.4377 29.5989 21.3608C25.5238 21.2636 21.4432 21.0088 17.3874 20.6002C14.2732 20.2865 11.1884 19.6609 8.10069 19.1152C5.77841 18.7048 4.47045 17.2314 4.04222 14.943C3.97964 14.6082 3.94494 14.268 3.8972 13.9305C3.81998 13.3839 3.76442 12.8329 3.65772 12.2922C3.58571 11.9275 3.33178 11.7047 2.94547 11.6543C2.54953 11.6026 2.28216 11.7833 2.11989 12.1223C2.00115 12.3704 1.87178 12.6271 1.82545 12.8935C1.6696 13.7887 1.50934 14.6862 1.42269 15.5898C1.21309 17.7733 1.04601 19.961 0.857866 22.1467C0.757578 23.312 0.639639 24.476 0.551385 25.6423C0.531929 25.8999 0.604337 26.1642 0.634624 26.4256C0.678751 26.4274 0.723079 26.4294 0.767206 26.4312C0.844026 26.208 0.920245 25.9843 0.997668 25.7613C1.23415 25.0811 1.58616 24.4956 2.26872 24.1681C2.9216 23.855 2.8865 23.854 2.79985 23.1151C2.63919 21.7459 2.52085 20.3716 2.38506 18.9996C2.52165 19.0518 2.55695 19.1208 2.5728 19.1942C2.80707 20.2739 3.02329 21.3578 3.27461 22.4335C3.61419 23.8875 3.92047 25.3535 4.35191 26.7806C4.77994 28.1967 5.79967 29.0862 7.25686 29.3789C8.12917 29.5542 9.02214 29.6461 9.91029 29.7205C12.1431 29.9076 14.2843 29.6952 16.2056 28.3565C17.96 27.1342 19.959 26.6898 22.0767 26.7257C24.2878 26.7632 26.499 26.839 28.7101 26.8342C32.011 26.8269 35.3119 26.7491 38.6128 26.7335C39.5852 26.7289 40.5622 26.7937 41.5296 26.8963C43.0518 27.058 44.3858 27.7402 45.6719 28.5234C46.5095 29.0335 47.3684 29.5099 48.3548 29.6394C50.2539 29.8892 52.1537 29.8149 54.0389 29.5065C55.7136 29.2325 56.8536 28.2707 57.3557 26.6434C57.6758 25.6054 57.9253 24.5434 58.1608 23.4819C58.4863 22.0141 58.7685 20.5369 59.0694 19.0636C59.1147 19.0694 59.1601 19.0755 59.2056 19.0813C59.0851 20.516 58.9767 21.9517 58.8349 23.3845C58.8016 23.721 58.8365 23.9364 59.1805 24.0748C59.9052 24.3663 60.3483 24.9313 60.6106 25.6512C60.7135 25.9336 60.8134 26.2172 60.9149 26.5002H60.9153ZM30.4614 10.6091C30.4628 10.633 30.4642 10.6569 30.4656 10.6807C34.8031 10.5698 39.1421 10.4992 43.477 10.3251C44.8798 10.2687 46.2843 10.001 47.6644 9.71616C48.6372 9.51538 49.3443 9.00311 48.3055 7.79784C46.5344 5.74313 44.3387 4.35876 41.7592 3.57069C39.6347 2.92162 37.4464 2.64122 35.2379 2.46311C30.9073 2.1139 26.5997 2.2525 22.3152 2.99022C18.8787 3.58192 15.8817 5.00963 13.5177 7.63217C13.3008 7.87266 13.1035 8.13361 12.9209 8.40118C12.6855 8.74637 12.7529 9.08454 13.1071 9.27589C13.4876 9.48128 13.9012 9.69429 14.3204 9.74745C16.3811 10.0092 18.4436 10.3291 20.5148 10.4218C23.8265 10.57 27.1456 10.5552 30.4616 10.6093L30.4614 10.6091ZM53.2908 30.4744C53.288 30.4181 53.285 30.3617 53.2822 30.3056C52.3617 30.3479 51.4397 30.3667 50.5214 30.4371C48.1625 30.6178 45.9802 30.1351 43.9526 28.8792C42.1738 27.7775 40.2124 27.254 38.11 27.2572C33.3794 27.2646 28.6484 27.2895 23.9182 27.2439C21.5889 27.2215 19.4716 27.7943 17.46 28.9579C16.5434 29.488 15.5298 29.906 14.5087 30.1874C12.8588 30.6421 11.1525 30.4508 9.46481 30.3535C9.09174 30.332 8.71826 30.32 8.34499 30.3037C8.34278 30.3459 8.34058 30.388 8.33857 30.4301C9.07609 30.5202 9.81181 30.6676 10.5513 30.6885C12.1708 30.7344 13.8205 30.9077 15.4053 30.6738C17.2376 30.4034 19.0315 30.3059 20.8768 30.4171C26.0377 30.728 31.2053 30.8585 36.3752 30.6247C37.982 30.5519 39.587 30.4281 41.1944 30.379C42.3588 30.3433 43.5548 30.2345 44.6847 30.4413C46.2455 30.727 47.7858 30.9839 49.3725 30.8403C50.6789 30.7219 51.9848 30.5968 53.2908 30.4746V30.4744ZM49.8662 8.25476C49.8996 8.22066 49.9329 8.18676 49.9664 8.15266C49.944 8.09449 49.9317 8.02911 49.8974 7.97896C48.9608 6.61163 48.0682 5.21101 47.0711 3.889C45.979 2.44104 44.4853 1.54627 42.6787 1.32223C40.6647 1.07251 38.6395 0.807947 36.6149 0.76723C31.1544 0.657114 25.6913 0.565851 20.24 1.11363C17.895 1.3491 15.871 2.12794 14.4463 4.08256C13.5277 5.34278 12.6698 6.64713 11.7883 7.93423C11.7395 8.00544 11.7233 8.09891 11.6776 8.22006C11.7759 8.19539 11.8324 8.19799 11.8621 8.17112C12.1878 7.87747 12.5194 7.58884 12.8309 7.28035C14.8294 5.30006 16.9926 3.539 19.7953 2.88371C21.7666 2.42279 23.7768 2.05774 25.7903 1.86218C30.254 1.42873 34.7184 1.49051 39.1574 2.24307C41.7209 2.67772 44.1714 3.41605 46.2604 5.02146C47.2492 5.78145 48.1322 6.67923 49.0616 7.51623C49.3322 7.75973 49.598 8.00865 49.866 8.25516L49.8662 8.25476ZM6.59396 13.0168C6.48023 13.0168 6.3663 13.0128 6.25258 13.0174C5.36362 13.0534 4.90831 13.5181 5.03407 14.3932C5.10106 14.8593 5.29282 15.3359 5.53672 15.7427C6.21206 16.8691 7.28213 17.516 8.53213 17.743C10.3339 18.0702 12.1573 18.2824 13.9762 18.5076C14.4337 18.5644 14.9736 18.5814 15.2125 18.0521C15.446 17.5344 15.1391 17.1162 14.824 16.7283C14.7933 16.6906 14.7612 16.6533 14.7261 16.6198C12.4488 14.4409 9.66719 13.3985 6.59416 13.0168H6.59396ZM55.0121 13.0255C55.0051 12.993 54.9979 12.9605 54.9909 12.928C54.123 13.1266 53.2389 13.2722 52.3906 13.5343C50.3156 14.1752 48.4102 15.1383 46.8733 16.7181C46.531 17.0699 46.1882 17.4801 46.409 18.0148C46.6397 18.5734 47.1955 18.5684 47.6716 18.5207C49.1575 18.3718 50.6458 18.2182 52.1178 17.9741C52.8937 17.8453 53.6751 17.6046 54.3876 17.2721C55.5318 16.7377 56.2982 15.8239 56.5554 14.5535C56.7445 13.6188 56.2994 13.0688 55.3537 13.0265C55.2402 13.0215 55.1261 13.0259 55.0123 13.0259L55.0121 13.0255ZM14.3982 10.4777C14.387 10.5179 14.3757 10.5582 14.3647 10.5983C14.5847 10.6769 14.8038 10.7588 15.025 10.8336C17.0859 11.5292 19.1631 12.1806 21.2038 12.931C23.1052 13.63 25.0486 13.9776 27.0668 13.9676C28.027 13.9628 28.027 13.973 27.9066 13.0152C27.8266 12.3786 27.7129 12.2725 27.0752 12.2508C23.0394 12.1139 19.0508 11.6347 15.1353 10.6179C14.8936 10.5552 14.6439 10.5239 14.398 10.4781L14.3982 10.4777ZM47.3487 10.5566C47.3383 10.5249 47.3279 10.493 47.3174 10.4613C47.1514 10.4954 46.9839 10.5233 46.8196 10.5648C43.4874 11.407 40.1135 11.9863 36.6774 12.172C35.9309 12.2123 35.1809 12.2216 34.439 12.3026C34.229 12.3255 33.9542 12.5092 33.8638 12.6947C33.7344 12.9597 33.7474 13.294 33.6995 13.5989C33.6545 13.8843 33.8004 13.9908 34.0615 13.9686C35.4668 13.849 36.9304 13.9353 38.2648 13.561C41.2494 12.724 44.1698 11.6573 47.1154 10.6817C47.1979 10.6545 47.2711 10.5989 47.3485 10.5566H47.3487ZM56.2146 29.6749C56.3175 29.7215 56.3494 29.7504 56.3749 29.7453C57.7077 29.4826 59.0419 29.2254 60.3685 28.934C60.4674 28.9123 60.5904 28.6299 60.5675 28.4907C60.4839 27.9801 60.3762 27.4682 60.2157 26.9768C60.031 26.411 59.8312 25.8377 59.5374 25.3254C59.4008 25.0871 59.0267 24.9853 58.7603 24.8214C58.6484 25.0414 58.4968 25.2502 58.431 25.4833C58.0715 26.7541 57.666 28.0001 56.7858 29.0277C56.6093 29.2337 56.4272 29.4346 56.2148 29.6751L56.2146 29.6749ZM5.2882 29.7857C5.30365 29.7459 5.31929 29.706 5.33474 29.6663C5.27557 29.5779 5.22803 29.4782 5.15542 29.4026C4.37077 28.5882 3.89038 27.6012 3.53657 26.5451C3.38212 26.0838 3.24814 25.6151 3.12057 25.1455C3.00985 24.7385 2.7475 24.6854 2.47552 24.9241C2.21537 25.1521 1.95322 25.4366 1.83066 25.7505C1.59639 26.3508 1.43513 26.9838 1.28891 27.6138C0.982224 28.9348 0.989846 28.9579 2.34494 29.2511C3.31894 29.4619 4.30678 29.6095 5.2884 29.7855L5.2882 29.7857Z" fill="url(#paint0_linear_2_91)"/>
<path d="M59.1331 8.26787C59.3891 8.18644 59.5702 8.12867 59.7513 8.07091C59.7553 8.03721 59.7593 8.00351 59.7633 7.96981C59.576 7.94254 59.3895 7.90483 59.2011 7.88958C58.394 7.8246 57.5853 7.77726 56.7796 7.70024C56.4247 7.66634 56.0533 7.62181 56.034 7.11676C56.0126 6.55334 56.2571 6.0872 56.6987 5.93336C56.8042 5.89665 56.921 5.86256 57.0297 5.86958C58.0643 5.93537 59.0465 6.17706 59.9142 6.77398C60.0197 6.84659 60.1129 6.94206 60.1962 7.04034C60.5165 7.41803 60.5969 7.98706 60.3751 8.25263C60.1705 8.49753 59.6767 8.51779 59.1331 8.26787Z" fill="url(#paint1_linear_2_91)"/>
<path d="M1.88937 8.08082C2.11944 8.13438 2.3495 8.18793 2.64735 8.25733C2.53844 8.30727 2.4891 8.34137 2.43474 8.353C2.00972 8.44447 1.55361 8.61957 1.23309 8.16627C1.01306 7.85517 1.19117 7.32044 1.60696 6.90203C2.20027 6.30512 2.97991 6.12881 3.76236 5.96614C3.96855 5.92322 4.18016 5.89413 4.39016 5.88591C4.8567 5.86806 5.26428 5.99282 5.49394 6.44351C5.80704 7.05748 5.62531 7.4827 4.95499 7.59262C4.20463 7.71557 3.44404 7.77815 2.68767 7.8632C2.4213 7.89308 2.15373 7.91214 1.88657 7.93621C1.88737 7.98454 1.88837 8.03268 1.88917 8.08102L1.88937 8.08082Z" fill="url(#paint2_linear_2_91)"/>
<path d="M60.9151 26.5001C60.8139 26.2171 60.714 25.9334 60.6109 25.651C60.3487 24.9312 59.9054 24.3661 59.1808 24.0747C58.8368 23.9363 58.8019 23.7209 58.8352 23.3843C58.9768 21.9518 59.0853 20.5159 59.2058 19.0812C59.1605 19.0753 59.1152 19.0693 59.0696 19.0635C58.7688 20.5367 58.4866 22.014 58.161 23.4818C57.9257 24.5433 57.676 25.6053 57.3559 26.6433C56.8539 28.2706 55.7138 29.2323 54.0392 29.5063C52.154 29.8148 50.2539 29.889 48.355 29.6393C47.3686 29.5095 46.5097 29.0334 45.6721 28.5233C44.386 27.74 43.052 27.0579 41.5298 26.8962C40.5624 26.7933 39.5852 26.7287 38.613 26.7333C35.3121 26.749 32.0112 26.8268 28.7104 26.834C26.4994 26.8389 24.288 26.763 22.0769 26.7255C19.9592 26.6896 17.9603 27.1341 16.2058 28.3564C14.2845 29.6951 12.1431 29.9075 9.91051 29.7203C9.02216 29.6459 8.12939 29.5541 7.25708 29.3788C5.79989 29.0859 4.78016 28.1964 4.35213 26.7805C3.92069 25.3532 3.61441 23.8874 3.27483 22.4334C3.02351 21.3577 2.80729 20.2738 2.57302 19.1941C2.55717 19.1209 2.52167 19.0517 2.38528 18.9995C2.52127 20.3717 2.63941 21.7458 2.80007 23.1149C2.88672 23.8539 2.92182 23.8547 2.26894 24.168C1.58638 24.4955 1.23437 25.0808 0.997887 25.7612C0.920264 25.9842 0.844245 26.2078 0.767425 26.4311C0.723298 26.4293 0.67897 26.4273 0.634843 26.4255C0.604757 26.1641 0.532148 25.8998 0.551604 25.6422C0.639858 24.4759 0.757797 23.3119 0.858085 22.1466C1.04623 19.9609 1.21331 17.7734 1.42291 15.5897C1.50956 14.6861 1.67002 13.7887 1.82567 12.8934C1.872 12.6268 2.00137 12.3701 2.12011 12.1221C2.28238 11.7832 2.54975 11.6027 2.94569 11.6542C3.332 11.7047 3.58593 11.9274 3.65793 12.292C3.76484 12.8328 3.8202 13.3838 3.89742 13.9303C3.94516 14.2679 3.97986 14.6081 4.04244 14.9429C4.47067 17.2312 5.77863 18.7045 8.10091 19.115C11.1884 19.6606 14.2735 20.2864 17.3876 20.6001C21.4435 21.0087 25.5238 21.2634 29.5991 21.3607C32.8113 21.4373 36.035 21.2331 39.2472 21.0458C41.7274 20.901 44.2069 20.6583 46.6698 20.3307C48.9385 20.0291 51.1974 19.6173 53.4372 19.1433C56.0941 18.5811 57.3258 17.0904 57.6263 14.3363C57.6985 13.6748 57.8038 13.0165 57.9141 12.36C57.9795 11.9717 58.2052 11.7134 58.6203 11.6628C59.0554 11.6097 59.397 11.8076 59.5015 12.1974C59.7404 13.0873 59.9865 13.9875 60.0896 14.8993C60.4488 18.0803 60.7597 21.2668 61.0614 24.4538C61.1245 25.1221 61.0706 25.8017 61.0706 26.476C61.0188 26.484 60.9673 26.4921 60.9155 26.5001H60.9151ZM56.0325 26.0979C56.2473 24.6367 56.1781 23.3161 55.7511 22.0298C55.4661 21.1714 54.8926 20.5578 53.9449 20.5781C52.6997 20.6045 51.4409 20.6515 50.2162 20.8579C46.0464 21.5603 41.862 22.1137 37.6378 22.3329C33.4636 22.5495 29.2918 22.5957 25.1112 22.384C20.5581 22.1536 16.0474 21.6387 11.5617 20.8446C10.2381 20.6103 8.90402 20.353 7.54391 20.5913C6.99092 20.6882 6.50592 20.9008 6.22552 21.4112C5.4533 22.8175 5.5245 24.3355 5.60634 25.9092C5.84121 24.9883 5.99786 24.1062 6.29471 23.2742C6.72816 22.0593 7.67248 21.4171 8.95236 21.4307C10.1991 21.4439 11.4594 21.4909 12.6881 21.6848C17.1579 22.3899 21.6511 22.8317 26.1711 22.9617C34.0999 23.19 41.9968 22.8388 49.8407 21.5687C50.7648 21.4191 51.7199 21.3936 52.6582 21.4157C54.2 21.4516 55.0613 22.1245 55.5008 23.609C55.7292 24.3806 55.842 25.1863 56.0323 26.0983L56.0325 26.0979Z" fill="black"/>
<path d="M30.4616 10.6092C27.1457 10.555 23.8265 10.5699 20.5148 10.4216C18.4437 10.329 16.3813 10.009 14.3204 9.74729C13.9014 9.69413 13.4876 9.48112 13.1071 9.27573C12.7529 9.08438 12.6855 8.74621 12.921 8.40102C13.1037 8.13345 13.3011 7.8725 13.5177 7.63201C15.8817 5.00947 18.8787 3.58176 22.3152 2.99006C26.5997 2.25234 30.9073 2.11374 35.2379 2.46295C37.4465 2.64106 39.6346 2.92147 41.7593 3.57053C44.3387 4.3586 46.5344 5.74298 48.3055 7.79768C49.3443 9.00275 48.6373 9.51522 47.6645 9.716C46.2843 10.0008 44.8799 10.2686 43.477 10.3249C39.1422 10.4992 34.8031 10.5699 30.4656 10.6806C30.4642 10.6567 30.4628 10.6328 30.4614 10.609L30.4616 10.6092ZM29.2945 9.78319C24.9492 8.23334 20.4675 7.9792 15.9216 8.33743C20.4302 8.33563 24.8782 8.90787 29.2945 9.78319Z" fill="black"/>
<path d="M53.2906 30.4745C51.9845 30.5966 50.6787 30.7218 49.3723 30.8401C47.7856 30.984 46.2454 30.727 44.6845 30.4412C43.5544 30.2344 42.3586 30.3431 41.1942 30.3788C39.5868 30.428 37.9818 30.5519 36.375 30.6245C31.2051 30.8586 26.0375 30.7278 20.8766 30.4169C19.0313 30.3058 17.2374 30.4033 15.4051 30.6737C13.8201 30.9075 12.1706 30.7342 10.5511 30.6883C9.81181 30.6674 9.0759 30.52 8.33838 30.43C8.34059 30.3878 8.34279 30.3457 8.3448 30.3036C8.71807 30.3198 9.09174 30.3319 9.46462 30.3533C11.1523 30.4506 12.8586 30.642 14.5085 30.1873C15.5297 29.9059 16.5432 29.4879 17.4598 28.9577C19.4714 27.7942 21.5887 27.2213 23.918 27.2438C28.6482 27.2895 33.3792 27.2645 38.1098 27.257C40.2122 27.2538 42.1735 27.7773 43.9524 28.8791C45.98 30.1349 48.1623 30.6177 50.5213 30.437C51.4395 30.3666 52.3617 30.3477 53.282 30.3054C53.2848 30.3618 53.2878 30.4181 53.2906 30.4743V30.4745Z" fill="black"/>
<path d="M49.8661 8.25482C49.5981 8.00832 49.3324 7.7594 49.0618 7.5159C48.1323 6.67909 47.2494 5.78111 46.2606 5.02113C44.1716 3.41571 41.7211 2.67739 39.1575 2.24274C34.7186 1.49018 30.2541 1.4284 25.7905 1.86185C23.7771 2.05741 21.7667 2.42246 19.7955 2.88338C16.9928 3.53887 14.8294 5.29993 12.8311 7.28002C12.5196 7.58851 12.1882 7.87714 11.8623 8.17078C11.8324 8.19766 11.776 8.19505 11.6777 8.21972C11.7235 8.09878 11.7397 8.00511 11.7885 7.9339C12.67 6.6468 13.5281 5.34245 14.4465 4.08223C15.8712 2.12761 17.8952 1.34897 20.2402 1.11329C25.6914 0.56572 31.1543 0.656982 36.615 0.766898C38.6396 0.807816 40.6649 1.07218 42.6789 1.32189C44.4857 1.54594 45.9791 2.44051 47.0713 3.88867C48.0684 5.21067 48.9611 6.6113 49.8976 7.97863C49.9319 8.02878 49.9441 8.09396 49.9666 8.15233C49.9331 8.18643 49.8998 8.22033 49.8663 8.25442L49.8661 8.25482Z" fill="black"/>
<path d="M6.59387 13.0168C9.66691 13.3985 12.4485 14.4408 14.7259 16.6197C14.761 16.6534 14.793 16.6905 14.8237 16.7282C15.1388 17.1161 15.4457 17.5343 15.2122 18.052C14.9734 18.5814 14.4334 18.5643 13.9759 18.5075C12.1573 18.2823 10.3336 18.0701 8.53184 17.7429C7.28205 17.5159 6.21177 16.8692 5.53643 15.7426C5.29253 15.3358 5.10078 14.8593 5.03379 14.3931C4.90803 13.518 5.36334 13.0533 6.25229 13.0174C6.36582 13.0127 6.47975 13.0168 6.59367 13.0168H6.59387Z" fill="black"/>
<path d="M56.5844 14.3717C56.5775 14.4303 56.5677 14.4909 56.5551 14.5532C56.5531 14.5669 56.5493 14.5795 56.5462 14.5923C56.2817 15.8425 55.5197 16.7431 54.3876 17.2721C53.6752 17.6038 52.8935 17.8449 52.1177 17.9737C50.6451 18.2176 49.1568 18.3718 47.6715 18.5202C47.1954 18.568 46.639 18.573 46.4087 18.0148C46.1881 17.48 46.5307 17.0691 46.8732 16.7179C48.4103 15.1379 50.3151 14.1747 52.3899 13.5335C53.2389 13.272 54.1231 13.1265 54.9906 12.9276C54.9906 12.9276 56.4632 12.667 56.5862 13.968C56.5872 13.969 56.5872 13.971 56.5872 13.9728C56.598 14.0919 56.598 14.2245 56.5842 14.3719L56.5844 14.3717Z" fill="black"/>
<path d="M56.5845 14.3718C56.5981 14.2244 56.5981 14.0918 56.5875 13.9727C56.6021 14.0946 56.6021 14.2284 56.5845 14.3718Z" fill="black"/>
<path d="M14.398 10.4775C14.6439 10.5234 14.8939 10.5547 15.1354 10.6173C19.0508 11.6342 23.0395 12.1132 27.0753 12.2501C27.7129 12.2718 27.8267 12.3779 27.9067 13.0145C28.027 13.9723 28.027 13.9621 27.0669 13.9669C25.0487 13.9769 23.1051 13.6293 21.2038 12.9303C19.1629 12.1801 17.086 11.5287 15.025 10.8329C14.8036 10.7581 14.5848 10.6762 14.3647 10.5976C14.376 10.5575 14.3872 10.5172 14.3982 10.4771L14.398 10.4775Z" fill="black"/>
<path d="M47.3485 10.5562C47.2711 10.5985 47.1979 10.6541 47.1154 10.6814C44.1698 11.657 41.2494 12.7236 38.2648 13.5606C36.9306 13.9349 35.4668 13.8487 34.0615 13.9682C33.8004 13.9905 33.6545 13.884 33.6995 13.5986C33.7474 13.2939 33.7344 12.9595 33.8637 12.6944C33.9542 12.509 34.229 12.3251 34.439 12.3022C35.1811 12.2212 35.9309 12.212 36.6774 12.1717C40.1135 11.9859 43.4874 11.4067 46.8196 10.5644C46.9837 10.5229 47.1513 10.4952 47.3174 10.4609C47.3279 10.4926 47.3383 10.5245 47.3487 10.5562H47.3485Z" fill="black"/>
<path d="M56.2146 29.6746C56.427 29.4341 56.6093 29.2331 56.7856 29.0271C57.6657 27.9995 58.0713 26.7536 58.4307 25.4827C58.4967 25.2496 58.6482 25.0408 58.7601 24.8208C59.0264 24.9847 59.4005 25.0866 59.5371 25.3248C59.831 25.8373 60.0309 26.4104 60.2155 26.9762C60.3757 27.4676 60.4836 27.9795 60.5673 28.4902C60.5901 28.6294 60.4672 28.9118 60.3683 28.9334C59.0417 29.2249 57.7075 29.482 56.3746 29.7448C56.3493 29.7498 56.3173 29.7209 56.2144 29.6744L56.2146 29.6746Z" fill="black"/>
<path d="M5.28797 29.7854C4.30635 29.6095 3.31851 29.4619 2.34451 29.2511C0.989616 28.9578 0.981794 28.9348 1.28848 27.6138C1.4347 26.9837 1.59596 26.3507 1.83023 25.7504C1.95279 25.4365 2.21494 25.1521 2.47509 24.924C2.74727 24.6855 3.00942 24.7387 3.12014 25.1455C3.24791 25.615 3.38169 26.0838 3.53614 26.5451C3.88995 27.6013 4.37033 28.5882 5.15499 29.4025C5.2276 29.4779 5.27514 29.5776 5.33431 29.6663C5.31886 29.706 5.30322 29.7459 5.28777 29.7856L5.28797 29.7854Z" fill="black"/>
<path d="M56.0324 26.0981C55.842 25.1861 55.7293 24.3802 55.5008 23.6087C55.0614 22.1243 54.2001 21.4513 52.6583 21.4154C51.72 21.3936 50.7648 21.4189 49.8408 21.5685C41.9968 22.8385 34.0999 23.1897 26.1711 22.9615C21.6511 22.8313 17.1578 22.3896 12.6882 21.6846C11.4594 21.4909 10.1992 21.4437 8.95242 21.4305C7.67274 21.4168 6.72823 22.0591 6.29478 23.274C5.99793 24.106 5.84128 24.9881 5.6064 25.909C5.52457 24.3352 5.45336 22.8173 6.22558 21.411C6.50599 20.9006 6.99098 20.688 7.54397 20.5911C8.90408 20.3528 10.2381 20.6101 11.5617 20.8444C16.0474 21.6385 20.5582 22.1534 25.1113 22.3838C29.2919 22.5954 33.4637 22.5493 37.6379 22.3327C41.862 22.1135 46.0465 21.5601 50.2162 20.8576C51.441 20.6512 52.6998 20.6043 53.945 20.5778C54.8925 20.5578 55.4661 21.1711 55.7512 22.0296C56.1782 23.3161 56.2472 24.6365 56.0326 26.0977L56.0324 26.0981Z" fill="url(#paint3_linear_2_91)"/>
<path d="M29.2942 9.78298C24.8779 8.90766 20.4297 8.33562 15.9214 8.33722C20.4673 7.97879 24.9489 8.23292 29.2942 9.78298Z" fill="url(#paint4_linear_2_91)"/>
<path d="M56.5845 14.3721C56.5845 14.3751 56.5835 14.3779 56.5835 14.3809C56.5776 14.4425 56.5678 14.5 56.5552 14.5536C56.5678 14.4912 56.5776 14.4306 56.5845 14.3721Z" fill="black"/>
</g>
<defs>
<linearGradient id="paint0_linear_2_91" x1="30.7723" y1="0" x2="30.7723" y2="31.3674" gradientUnits="userSpaceOnUse">
<stop stop-color="#FFAD02"/>
<stop offset="1" stop-color="#FEEE44"/>
</linearGradient>
<linearGradient id="paint1_linear_2_91" x1="58.2666" y1="5.86865" x2="58.2666" y2="8.44605" gradientUnits="userSpaceOnUse">
<stop stop-color="#FFAD02"/>
<stop offset="1" stop-color="#FEEE44"/>
</linearGradient>
<linearGradient id="paint2_linear_2_91" x1="3.39045" y1="5.88428" x2="3.39045" y2="8.46395" gradientUnits="userSpaceOnUse">
<stop stop-color="#FFAD02"/>
<stop offset="1" stop-color="#FEEE44"/>
</linearGradient>
<linearGradient id="paint3_linear_2_91" x1="30.8544" y1="20.4961" x2="30.8544" y2="26.0981" gradientUnits="userSpaceOnUse">
<stop stop-color="#FFAD02"/>
<stop offset="1" stop-color="#FEEE44"/>
</linearGradient>
<linearGradient id="paint4_linear_2_91" x1="22.6078" y1="8.19385" x2="22.6078" y2="9.78298" gradientUnits="userSpaceOnUse">
<stop stop-color="#FFAD02"/>
<stop offset="1" stop-color="#FEEE44"/>
</linearGradient>
<clipPath id="clip0_2_91">
<rect width="61.5445" height="31.3672" fill="white"/>
</clipPath>
</defs>
</svg>
